# Blender v2.80 (sub 72) OBJ File: ''
# www.blender.org
mtllib planes.mtl
o Plane
v -1.000000 0.000000 1.000000
v 1.000000 0.000000 1.000000
v -1.000000 0.000000 -1.000000
v 1.000000 0.000000 -1.000000
vt 0.999900 0.999900
vt 0.000100 0.999900
vt 0.000100 0.000100
vt 0.999900 0.000100
vn 0.0000 1.0000 0.0000
usemtl None
s off
f 1/1/1 2/2/1 4/3/1 3/4/1
o Plane.001_Plane
v 1.000000 0.000000 1.000000
v 3.000000 0.000000 1.000000
v 1.000000 0.000000 -1.000000
v 3.000000 0.000000 -1.000000
vt 0.999900 0.999900
vt 0.000100 0.999900
vt 0.000100 0.000100
vt 0.999900 0.000100
vn 0.0000 1.0000 0.0000
usemtl None
s off
f 5/5/2 6/6/2 8/7/2 7/8/2
o Plane.002_Plane
v -3.000000 0.000000 1.000000
v -1.000000 0.000000 1.000000
v -3.000000 0.000000 -1.000000
v -1.000000 0.000000 -1.000000
vt 0.999900 0.999900
vt 0.000100 0.999900
vt 0.000100 0.000100
vt 0.999900 0.000100
vn 0.0000 1.0000 0.0000
usemtl None
s off
f 9/9/3 10/10/3 12/11/3 11/12/3
o Plane.003_Plane
v -1.000000 0.000000 -1.000000
v 1.000000 0.000000 -1.000000
v -1.000000 0.000000 -3.000000
v 1.000000 0.000000 -3.000000
vt 0.999900 0.999900
vt 0.000100 0.999900
vt 0.000100 0.000100
vt 0.999900 0.000100
vn 0.0000 1.0000 0.0000
usemtl None
s off
f 13/13/4 14/14/4 16/15/4 15/16/4
o Plane.004_Plane
v 1.000000 0.000000 -1.000000
v 3.000000 0.000000 -1.000000
v 1.000000 0.000000 -3.000000
v 3.000000 0.000000 -3.000000
vt 0.999900 0.999900
vt 0.000100 0.999900
vt 0.000100 0.000100
vt 0.999900 0.000100
vn 0.0000 1.0000 0.0000
usemtl None
s off
f 17/17/5 18/18/5 20/19/5 19/20/5
o Plane.005_Plane
v -3.000000 0.000000 -1.000000
v -1.000000 0.000000 -1.000000
v -3.000000 0.000000 -3.000000
v -1.000000 0.000000 -3.000000
vt 0.999900 0.999900
vt 0.000100 0.999900
vt 0.000100 0.000100
vt 0.999900 0.000100
vn 0.0000 1.0000 0.0000
usemtl None
s off
f 21/21/6 22/22/6 24/23/6 23/24/6
o Plane.006_Plane
v -1.000000 0.000000 3.000000
v 1.000000 0.000000 3.000000
v -1.000000 0.000000 1.000000
v 1.000000 0.000000 1.000000
vt 0.999900 0.999900
vt 0.000100 0.999900
vt 0.000100 0.000100
vt 0.999900 0.000100
vn 0.0000 1.0000 0.0000
usemtl None
s off
f 25/25/7 26/26/7 28/27/7 27/28/7
o Plane.007_Plane
v 1.000000 0.000000 3.000000
v 3.000000 0.000000 3.000000
v 1.000000 0.000000 1.000000
v 3.000000 0.000000 1.000000
vt 0.999900 0.999900
vt 0.000100 0.999900
vt 0.000100 0.000100
vt 0.999900 0.000100
vn 0.0000 1.0000 0.0000
usemtl None
s off
f 29/29/8 30/30/8 32/31/8 31/32/8
o Plane.008_Plane
v -3.000000 0.000000 3.000000
v -1.000000 0.000000 3.000000
v -3.000000 0.000000 1.000000
v -1.000000 0.000000 1.000000
vt 0.999900 0.999900
vt 0.000100 0.999900
vt 0.000100 0.000100
vt 0.999900 0.000100
vn 0.0000 1.0000 0.0000
usemtl None
s off
f 33/33/9 34/34/9 36/35/9 35/36/9
